<svg width="32" height="32" viewBox="0 0 32 32" fill="none" xmlns="http://www.w3.org/2000/svg">
<g clip-path="url(#clip0_45_2853)">
<path opacity="0.25" d="M4.11952 5.6038C7.80299 1.50018 13.4972 -0.710136 19.569 0.570981L19.6014 0.577947L19.6337 0.585246C25.0358 1.83906 29.3627 5.5235 30.7625 11.0062C32.1763 16.5436 30.204 22.3053 25.9305 26.6981C21.9646 31.2401 17.1669 32.7421 12.5744 31.6762C8.10845 30.6396 4.2146 27.2775 1.54232 22.9359L1.37151 22.6585L1.23991 22.3533C-1.43728 16.1396 0.414681 9.73129 4.11952 5.6038ZM18.1889 9.11925C14.4433 8.34286 11.2131 9.76088 9.31571 11.8747C7.51708 13.8785 7.0885 16.1675 7.83799 18.1867C9.60993 20.9304 11.8865 22.6475 14.0467 23.1488C16.1243 23.631 18.4403 23.0884 20.7149 20.4488L20.803 20.3466L20.8968 20.2511C23.7108 17.3938 23.9349 14.8998 23.571 13.4747C23.1839 11.9587 21.7065 9.94426 18.1889 9.11925Z" fill="url(#paint0_linear_45_2853)"/>
<path opacity="0.6" d="M5.77004 5.26078C9.18863 1.40208 14.5293 -0.727397 20.2754 0.500981C25.7842 1.67865 29.9521 5.08449 31.3581 10.0441C32.7814 15.0644 31.0352 20.4408 26.9771 24.6529C23.25 28.9921 18.8078 30.361 14.4818 29.3766C10.2686 28.4178 6.42177 25.2983 3.47006 21.2493L3.26264 20.9647L3.12044 20.6306C0.723298 14.9936 2.33837 9.13426 5.77004 5.26078ZM19.3235 6.48755C15.2215 5.61063 11.6091 7.16558 9.43214 9.62282C7.35021 11.9728 6.69489 14.9207 7.70265 17.6204C10.0748 20.7687 12.8509 22.802 15.4929 23.4033C18.0811 23.9922 20.775 23.2764 23.3021 20.3052L23.3636 20.2328L23.4291 20.1658C26.4878 17.0191 26.9543 14.004 26.3705 11.945C25.7621 9.79918 23.6628 7.4152 19.3235 6.48755Z" fill="url(#paint1_linear_45_2853)"/>
<path d="M7.17482 4.84445C10.4165 1.2003 15.5087 -0.836958 21.017 0.335781C26.5347 1.51053 30.3133 5.42225 31.5453 10.3915C32.772 15.3393 31.3564 20.8727 27.3393 25.0209C23.6609 29.294 19.3349 29.9213 15.2855 28.3917C11.3617 26.9095 7.73153 23.442 4.92405 19.6065L4.77528 19.4032L4.67343 19.1643C2.44606 13.9479 3.92334 8.49959 7.17482 4.84445ZM20.3398 4.61257C15.9999 3.68857 12.1391 5.32037 9.78521 7.96646C7.49806 10.5375 6.71833 13.8966 7.93928 17.0034C10.4722 20.4087 13.4931 23.1417 16.4471 24.2575C19.3204 25.3428 22.1384 24.9322 24.7177 21.9118L24.7618 21.8604L24.8087 21.8123C27.9172 18.6272 28.7241 14.7501 27.9413 11.5927C27.1588 8.43706 24.6703 5.53456 20.3398 4.61257Z" fill="url(#paint2_linear_45_2853)"/>
<path d="M14.4477 12.0083H12.6465V14.0968H14.4477V12.0083Z" fill="#FFD800"/>
<path d="M17.1493 12.0083H15.3481V14.0968H17.1493V12.0083Z" fill="#FF9A00"/>
<path d="M19.8519 12.0083H18.0507V14.0968H19.8519V12.0083Z" fill="#FFD800"/>
<path d="M14.4477 15.1411H12.6465V17.2296H14.4477V15.1411Z" fill="#FF9A00"/>
<path d="M19.8512 15.1411H18.05V17.2296H19.8512V15.1411Z" fill="#FF9A00"/>
<path d="M14.4477 18.2738H12.6465V20.3623H14.4477V18.2738Z" fill="#FFD800"/>
<path d="M17.1493 18.2738H15.3481V20.3623H17.1493V18.2738Z" fill="#FF9A00"/>
<path d="M19.8512 18.2738H18.05V20.3623H19.8512V18.2738Z" fill="#FFD800"/>
<path d="M17.1612 15.13H15.36V17.2185H17.1612V15.13Z" fill="#FFD800"/>
</g>
<defs>
<linearGradient id="paint0_linear_45_2853" x1="4.74063" y1="3.74835" x2="27.8329" y2="27.4696" gradientUnits="userSpaceOnUse">
<stop stop-color="#FFF4A0"/>
<stop offset="0.45" stop-color="#FFD200"/>
<stop offset="0.75" stop-color="#FF9A00"/>
<stop offset="1" stop-color="#FF5C00"/>
</linearGradient>
<linearGradient id="paint1_linear_45_2853" x1="4.13632" y1="2.37766" x2="27.5489" y2="26.9586" gradientUnits="userSpaceOnUse">
<stop stop-color="#FFF4A0"/>
<stop offset="0.45" stop-color="#FFD200"/>
<stop offset="0.75" stop-color="#FF9A00"/>
<stop offset="1" stop-color="#FF5C00"/>
</linearGradient>
<linearGradient id="paint2_linear_45_2853" x1="5.26135" y1="1.47514" x2="30.0592" y2="26.0845" gradientUnits="userSpaceOnUse">
<stop stop-color="#FFF4A0"/>
<stop offset="0.45" stop-color="#FFD200"/>
<stop offset="0.75" stop-color="#FF9A00"/>
<stop offset="1" stop-color="#FF5C00"/>
</linearGradient>
<clipPath id="clip0_45_2853">
<rect width="32" height="32" fill="white"/>
</clipPath>
</defs>
</svg>
